<svg width="218" height="51" viewBox="0 0 218 51" fill="none" xmlns="http://www.w3.org/2000/svg">
<path d="M152.811 37.6753H5.27344L19.4616 0H151.373C141.595 0.766928 133.926 8.91553 133.926 18.7897C133.926 28.6639 142.362 37.5795 152.715 37.5795L152.811 37.6753Z" fill="#D52037"/>
<path d="M218 18.7896C218 28.0886 210.427 35.6621 201.128 35.6621C191.829 35.6621 194.705 34.7034 192.116 33.0737C196.143 29.6225 198.731 24.4457 198.731 18.7896C198.731 13.1336 196.143 7.95679 192.116 4.50562C194.705 2.8759 197.772 1.91724 201.128 1.91724C210.427 1.91724 218 9.49065 218 18.7896Z" fill="#4A1016"/>
<path d="M196.716 18.7896C196.716 24.0623 194.32 28.8556 190.485 31.9233C190.006 32.3067 189.431 32.6902 188.855 33.0737C186.267 34.7034 183.199 35.6621 179.844 35.6621C175.051 35.6621 170.641 33.6489 167.573 30.3894C170.066 27.2259 171.6 23.1036 171.6 18.7896C171.6 14.4757 170.066 10.3534 167.573 7.18986C170.641 3.93042 174.955 1.91724 179.844 1.91724C184.733 1.91724 186.267 2.8759 188.855 4.50562C189.431 4.88908 189.91 5.27255 190.485 5.65601C194.32 8.72372 196.716 13.517 196.716 18.7896Z" fill="#9C1C1F"/>
<path d="M169.682 18.7897C169.682 22.6244 168.436 26.0755 166.327 28.9515C165.944 29.5267 165.464 30.006 165.081 30.4854C162.013 33.7448 157.603 35.758 152.81 35.758C143.511 35.758 135.938 28.1846 135.938 18.8856C135.938 9.5866 143.511 2.01318 152.81 2.01318C162.109 2.01318 162.013 4.02637 165.081 7.28581C165.56 7.76514 165.944 8.24447 166.327 8.81967C168.436 11.5998 169.682 15.1468 169.682 18.9815V18.7897Z" fill="#D52037"/>
<path d="M0 50.2337L0.287598 49.2751L3.06771 43.1396H5.17676L5.84783 47.0702H5.65609L8.81967 43.1396H10.9287L9.68246 49.3709L9.39487 50.2337H7.47755L8.53207 45.6322H8.81967L5.84783 49.2751H4.31397L3.73877 45.6322H3.93051L2.01319 50.2337H0Z" fill="#D81E37"/>
<path d="M10.5448 48.5081L12.2704 43.1396H14.1877L12.558 48.2205C12.4621 48.5081 12.558 48.6999 12.8456 48.6999H15.1464C15.434 48.6999 15.7216 48.5081 15.8174 48.1247L17.4471 43.1396H19.3645L17.543 48.604C17.3513 49.0833 17.0637 49.4668 16.6802 49.8503C16.2968 50.1379 15.8174 50.3296 15.2422 50.3296H11.6952C11.12 50.3296 10.7365 50.1379 10.5448 49.8503C10.3531 49.5627 10.2572 49.0833 10.5448 48.5081Z" fill="#D81E37"/>
<path d="M18.3096 50.2337L20.6104 43.1396H22.5277L20.8021 48.5081H25.0202L24.445 50.2337H18.3096Z" fill="#D81E37"/>
<path d="M27.0353 50.2337L28.8568 44.7694H26.3643L26.9395 43.1396H33.9377L33.5542 44.1942L32.7873 44.7694H30.7741L28.9526 50.2337H27.0353Z" fill="#D81E37"/>
<path d="M32.1152 50.2337L34.416 43.1396H36.3333L34.0326 50.2337H32.1152Z" fill="#D81E37"/>
<path d="M35.7578 47.4535L36.2371 45.9197H40.3594L39.88 47.4535H35.7578Z" fill="#D81E37"/>
<path d="M39.4961 50.2337L40.0713 48.604H44.4811C44.577 48.604 44.7687 48.604 44.7687 48.604C44.7687 48.604 44.8646 48.4123 44.9605 48.2205C44.9605 48.0288 44.9605 47.9329 44.9605 47.8371C44.9605 47.7412 44.8646 47.8371 44.7687 47.8371L42.1803 47.3578C41.701 47.3578 41.3175 47.0702 41.1258 46.7826C40.9341 46.495 40.9341 46.1115 41.1258 45.6322L41.3175 44.8652C41.5093 44.3859 41.7969 44.0024 42.1803 43.619C42.5638 43.3314 43.0431 43.1396 43.6183 43.1396H48.4116L48.0282 44.1942L47.2612 44.7694H43.6183C43.5225 44.7694 43.3307 44.7694 43.3307 44.7694C43.3307 44.7694 43.2349 44.9611 43.139 45.1528C43.139 45.3446 43.139 45.4404 43.139 45.5363C43.139 45.5363 43.2349 45.5363 43.3307 45.5363L45.9191 46.0156C46.3984 46.0156 46.7819 46.3032 46.9736 46.5908C47.1654 46.8784 47.1654 47.2619 46.9736 47.7412L46.7819 48.5081C46.5902 48.9875 46.3026 49.3709 45.9191 49.7544C45.5357 50.042 45.0563 50.2337 44.4811 50.2337H39.4961Z" fill="#D81E37"/>
<path d="M47.0705 50.2337L49.3713 43.1396H54.3563C54.9315 43.1396 55.315 43.3314 55.5067 43.619C55.6984 43.9066 55.7943 44.3859 55.5067 44.9611L55.0274 46.495C54.8356 46.9743 54.548 47.3578 54.1646 47.7412C53.7811 48.0288 53.3018 48.2205 52.7266 48.2205H49.563L48.8919 50.2337H46.9746H47.0705ZM50.2341 46.495H52.6307C52.9183 46.495 53.2059 46.3032 53.3018 45.9198L53.5894 45.1528C53.6852 44.8652 53.5894 44.6735 53.3018 44.6735H50.8092L50.2341 46.3991V46.495Z" fill="#D81E37"/>
<path d="M55.3153 48.5081L56.5616 44.6735C56.7533 44.1941 57.0409 43.8107 57.4244 43.4272C57.8078 43.1396 58.2871 42.9479 58.8623 42.9479H62.4094C62.9846 42.9479 63.368 43.1396 63.5598 43.4272C63.7515 43.7148 63.8474 44.1941 63.5598 44.7693L62.3135 48.604C62.1218 49.0833 61.8342 49.4668 61.4507 49.8502C61.0673 50.1378 60.5879 50.3296 60.0127 50.3296H56.4657C55.8905 50.3296 55.507 50.1378 55.3153 49.8502C55.1236 49.5626 55.0277 49.0833 55.3153 48.5081ZM57.6161 48.6998H59.9169C60.2045 48.6998 60.4921 48.5081 60.5879 48.1246L61.5466 45.0569C61.6425 44.7693 61.5466 44.5776 61.259 44.5776H58.9582C58.6706 44.5776 58.383 44.7693 58.2871 45.1528L57.3285 48.2205C57.2326 48.5081 57.3285 48.6998 57.6161 48.6998Z" fill="#D81E37"/>
<path d="M62.9836 50.2337L65.2843 43.1396H70.3652C70.9404 43.1396 71.3239 43.3314 71.5156 43.619C71.7074 43.9066 71.8032 44.3859 71.5156 44.9611L71.1322 46.1115C70.9404 46.6867 70.557 47.166 69.9818 47.4536C69.6942 47.5495 69.5025 47.6453 69.4066 47.6453L70.2694 49.2751L69.9818 50.2337H68.2562L67.1058 47.8371H65.5719L64.805 50.2337H62.8877H62.9836ZM66.243 46.1115H68.7355C69.0231 46.1115 69.3107 45.9198 69.4066 45.5363V45.1528C69.5983 44.8652 69.5025 44.6735 69.3107 44.6735H66.7223L66.243 46.0156V46.1115Z" fill="#D81E37"/>
<path d="M72.9552 50.2337L74.7767 44.7694H72.2842L72.8594 43.1396H79.8576L79.4741 44.1942L78.7072 44.7694H76.694L74.8726 50.2337H72.9552Z" fill="#D81E37"/>
<path d="M80.7179 50.2337L83.0187 43.1396H88.0038C88.579 43.1396 88.9624 43.3314 89.1541 43.619C89.3459 43.9066 89.4417 44.3859 89.1541 44.9611L88.6748 46.495C88.4831 46.9743 88.1955 47.3578 87.812 47.7412C87.4286 48.0288 86.9492 48.2205 86.374 48.2205H83.2105L82.5394 50.2337H80.6221H80.7179ZM83.8815 46.495H86.2782C86.5658 46.495 86.8534 46.3032 86.9492 45.9198L87.2368 45.1528C87.3327 44.8652 87.2368 44.6735 86.9492 44.6735H84.4567L83.8815 46.3991V46.495Z" fill="white"/>
<path d="M88.4845 50.2337L90.7853 43.1396H95.8662C96.4414 43.1396 96.8249 43.3314 97.0166 43.619C97.2083 43.9066 97.3042 44.3859 97.0166 44.9611L96.6332 46.1115C96.4414 46.6867 96.058 47.166 95.4828 47.4536C95.1952 47.5495 95.0034 47.6453 94.9076 47.6453L95.7704 49.2751L95.4828 50.2337H93.7572L92.6068 47.8371H91.0729L90.306 50.2337H88.3887H88.4845ZM91.744 46.1115H94.2365C94.5241 46.1115 94.8117 45.9198 94.9076 45.5363V45.1528C95.0993 44.8652 95.0034 44.6735 94.8117 44.6735H92.2233L91.744 46.0156V46.1115Z" fill="white"/>
<path d="M97.0165 48.5081L98.2627 44.6735C98.4545 44.1941 98.7421 43.8107 99.1255 43.4272C99.509 43.1396 99.9883 42.9479 100.564 42.9479H104.111C104.686 42.9479 105.069 43.1396 105.261 43.4272C105.453 43.7148 105.549 44.1941 105.261 44.7693L104.015 48.604C103.823 49.0833 103.535 49.4668 103.152 49.8502C102.768 50.1378 102.289 50.3296 101.714 50.3296H98.1669C97.5917 50.3296 97.2082 50.1378 97.0165 49.8502C96.8247 49.5626 96.7289 49.0833 97.0165 48.5081ZM99.3173 48.6998H101.618C101.906 48.6998 102.193 48.5081 102.289 48.1246L103.248 45.0569C103.344 44.7693 103.248 44.5776 102.96 44.5776H100.659C100.372 44.5776 100.084 44.7693 99.9883 45.1528L99.0297 48.2205C98.9338 48.5081 99.0297 48.6998 99.3173 48.6998Z" fill="white"/>
<path d="M104.589 50.2337L106.89 43.1396H113.025L112.642 44.1942L111.875 44.7694H108.232L107.753 46.1115H110.916L110.341 47.7412H107.177L106.41 50.1379H104.493L104.589 50.2337Z" fill="white"/>
<path d="M111.396 50.2337L113.696 43.1396H119.928L119.544 44.1942L118.777 44.7694H115.039L114.655 45.8239H117.915L117.435 47.4536H114.176L113.792 48.604H118.106L117.531 50.2337H111.3H111.396Z" fill="white"/>
<path d="M118.201 50.2337L118.776 48.604H123.186C123.282 48.604 123.474 48.604 123.474 48.604C123.474 48.604 123.57 48.4123 123.666 48.2205C123.666 48.0288 123.666 47.9329 123.666 47.8371C123.666 47.7412 123.57 47.8371 123.474 47.8371L120.885 47.3578C120.406 47.3578 120.023 47.0702 119.831 46.7826C119.639 46.495 119.639 46.1115 119.831 45.6322L120.023 44.8652C120.214 44.3859 120.502 44.0024 120.885 43.619C121.269 43.3314 121.748 43.1396 122.323 43.1396H127.117L126.733 44.1942L125.966 44.7694H122.323C122.228 44.7694 122.036 44.7694 122.036 44.7694C122.036 44.7694 121.94 44.9611 121.844 45.1528C121.844 45.3446 121.844 45.4404 121.844 45.5363C121.844 45.5363 121.94 45.5363 122.036 45.5363L124.624 46.0156C125.104 46.0156 125.487 46.3032 125.679 46.5908C125.87 46.8784 125.87 47.2619 125.679 47.7412L125.487 48.5081C125.295 48.9875 125.008 49.3709 124.624 49.7544C124.241 50.042 123.761 50.2337 123.186 50.2337H118.201Z" fill="white"/>
<path d="M125.489 50.2337L126.064 48.604H130.474C130.57 48.604 130.762 48.604 130.762 48.604C130.762 48.604 130.858 48.4123 130.954 48.2205C130.954 48.0288 130.954 47.9329 130.954 47.8371C130.954 47.7412 130.858 47.8371 130.762 47.8371L128.174 47.3578C127.694 47.3578 127.311 47.0702 127.119 46.7826C126.927 46.495 126.927 46.1115 127.119 45.6322L127.311 44.8652C127.502 44.3859 127.79 44.0024 128.174 43.619C128.557 43.3314 129.036 43.1396 129.611 43.1396H134.405L134.021 44.1942L133.254 44.7694H129.611C129.516 44.7694 129.324 44.7694 129.324 44.7694C129.324 44.7694 129.228 44.9611 129.132 45.1528C129.132 45.3446 129.132 45.4404 129.132 45.5363C129.132 45.5363 129.228 45.5363 129.324 45.5363L131.912 46.0156C132.392 46.0156 132.775 46.3032 132.967 46.5908C133.159 46.8784 133.159 47.2619 132.967 47.7412L132.775 48.5081C132.583 48.9875 132.296 49.3709 131.912 49.7544C131.529 50.042 131.049 50.2337 130.474 50.2337H125.489Z" fill="white"/>
<path d="M133.062 50.2337L135.362 43.1396H137.28L134.979 50.2337H133.062Z" fill="white"/>
<path d="M136.608 48.5081L137.855 44.6735C138.046 44.1941 138.334 43.8107 138.717 43.4272C139.101 43.1396 139.58 42.9479 140.155 42.9479H143.702C144.278 42.9479 144.661 43.1396 144.853 43.4272C145.044 43.7148 145.14 44.1941 144.853 44.7693L143.606 48.604C143.415 49.0833 143.127 49.4668 142.744 49.8502C142.36 50.1378 141.881 50.3296 141.306 50.3296H137.759C137.183 50.3296 136.8 50.1378 136.608 49.8502C136.417 49.5626 136.321 49.0833 136.608 48.5081ZM138.909 48.6998H141.21C141.497 48.6998 141.785 48.5081 141.881 48.1246L142.84 45.0569C142.935 44.7693 142.84 44.5776 142.552 44.5776H140.251C139.964 44.5776 139.676 44.7693 139.58 45.1528L138.621 48.2205C138.526 48.5081 138.621 48.6998 138.909 48.6998Z" fill="white"/>
<path d="M144.279 50.2337L146.58 43.1396H148.497L150.606 47.7412H150.319L150.606 46.495L151.661 43.1396H153.578L151.278 50.2337H149.36L147.251 45.6322H147.539L147.251 46.8784L146.197 50.2337H144.279Z" fill="white"/>
<path d="M152.044 50.2337L152.332 49.2751L157.029 43.1396H159.33L160.001 49.3709L159.713 50.3296H157.892V48.9875H154.728L153.77 50.3296H151.948L152.044 50.2337ZM155.975 47.2619H157.7L157.508 45.1528L155.975 47.2619Z" fill="white"/>
<path d="M160.192 50.2337L162.493 43.1396H164.41L162.685 48.5081H166.903L166.328 50.2337H160.192Z" fill="white"/>
<path d="M169.778 50.2337L172.079 43.1396H173.996L172.271 48.5081H176.489L175.914 50.2337H169.778Z" fill="white"/>
<path d="M176.489 50.2337L178.79 43.1396H185.021L184.638 44.1942L183.871 44.7694H180.132L179.749 45.8239H183.008L182.529 47.4536H179.27L178.886 48.604H183.2L182.625 50.2337H176.394H176.489Z" fill="white"/>
<path d="M182.913 50.2337L183.201 49.2751L187.898 43.1396H190.199L190.87 49.3709L190.583 50.3296H188.761V48.9875H185.598L184.639 50.3296H182.817L182.913 50.2337ZM186.844 47.2619H188.569L188.378 45.1528L186.844 47.2619Z" fill="white"/>
<path d="M191.636 48.4122L192.786 44.7693C192.978 44.29 193.265 43.9065 193.649 43.523C194.032 43.2354 194.512 43.0437 195.087 43.0437H199.88L199.497 44.0982L198.73 44.6734H195.183C194.895 44.6734 194.608 44.8652 194.512 45.2486L193.553 48.0287C193.457 48.3163 193.553 48.5081 193.841 48.5081H196.429L197.196 46.1114H199.113L197.771 50.2336H192.69C192.115 50.2336 191.732 50.0419 191.54 49.7543C191.348 49.4667 191.252 48.9874 191.54 48.4122H191.636Z" fill="white"/>
<path d="M199.593 48.5081L201.318 43.1396H203.236L201.606 48.2205C201.51 48.5081 201.606 48.6999 201.893 48.6999H204.194C204.482 48.6999 204.769 48.5081 204.865 48.1247L206.495 43.1396H208.412L206.591 48.604C206.399 49.0833 206.112 49.4668 205.728 49.8503C205.345 50.1379 204.865 50.3296 204.29 50.3296H200.743C200.168 50.3296 199.784 50.1379 199.593 49.8503C199.401 49.5627 199.305 49.0833 199.593 48.5081Z" fill="white"/>
<path d="M207.262 50.2337L209.563 43.1396H215.794L215.41 44.1942L214.644 44.7694H210.905L210.521 45.8239H213.781L213.301 47.4536H210.042L209.659 48.604H213.972L213.397 50.2337H207.166H207.262Z" fill="white"/>
<path d="M13.9004 33.8406L15.0508 29.8142L25.1167 4.21802H32.6901L34.9909 20.707H34.3198L46.0155 4.21802H53.6848L48.9873 30.1018L47.9328 33.8406H40.7429L44.7692 14.7633H45.632L34.895 29.8142H29.2389L27.1299 14.7633H27.9927L21.0903 33.8406H13.9004Z" fill="white"/>
<path d="M50.1377 33.8406L52.1509 26.9383H68.2564C68.7357 26.9383 69.215 26.8424 69.5026 26.5548C69.7902 26.3631 69.982 25.7879 70.2696 25.1168V24.7333C70.5572 24.254 70.5571 23.8705 70.4613 23.6788C70.3654 23.4871 70.0778 23.3912 69.5985 23.2953L60.1078 21.4739C58.1904 21.0904 56.8483 20.3235 56.1773 19.0772C55.4103 17.831 55.3145 16.2971 55.8897 14.3798L56.7524 11.3121C57.3276 9.20305 58.3822 7.47746 60.0119 6.2312C61.5457 4.88908 63.3672 4.21802 65.2845 4.21802H82.828L81.5817 8.72372L78.8016 11.1204H65.4763C64.9969 11.1204 64.5176 11.2162 64.23 11.5038C63.9424 11.6956 63.7507 12.2708 63.4631 12.9418V13.3253C63.1755 13.8046 63.1755 14.1881 63.2713 14.3798C63.3672 14.5715 63.6548 14.6674 64.1341 14.7633L73.6249 16.5847C75.5422 16.9682 76.8843 17.7351 77.5554 18.9814C78.3223 20.2276 78.4182 21.7615 77.843 23.6788L76.9802 26.7465C76.405 28.8556 75.3504 30.5812 73.7207 31.8274C72.1869 33.1695 70.3654 33.8406 68.4481 33.8406H50.2336H50.1377Z" fill="white"/>
<path d="M77.8428 33.8406L86.3748 4.21802H104.685C106.794 4.21802 108.232 4.88908 109.095 6.32707C109.958 7.76506 110.054 9.49065 109.383 11.7914L107.561 18.3103C106.986 20.4194 105.932 22.145 104.398 23.3912C102.864 24.7333 101.138 25.4044 99.125 25.4044H87.6211L85.2245 33.9365H78.0345L77.8428 33.8406ZM89.4426 18.4062H98.3581C99.5085 18.4062 100.371 17.6393 100.755 16.2013L101.713 12.9418C102.097 11.6956 101.713 11.1204 100.851 11.1204H91.5516L89.4426 18.4062Z" fill="white"/>
<path d="M106.507 33.8406L115.039 4.21802H122.229L115.806 26.7465H131.24L129.227 33.8406H106.603H106.507Z" fill="white"/>
</svg>
